<svg id="Capa_1" enable-background="new 0 0 512 512" height="512" viewBox="0 0 512 512" width="512" xmlns="http://www.w3.org/2000/svg"><g><path d="m434.265 254.281c11.105-26.809 16.735-55.115 16.735-84.134v-20.147h61v-45c0-57.897-47.551-105-106-105h-64.542l-85.458 56.972-85.458-56.972h-64.542c-58.449 0-106 47.103-106 105v45h61v20.147c0 29.018 5.63 57.325 16.735 84.134 10.298 24.862 24.843 47.299 43.265 66.793v50.436l-69.093 140.49h185.851l18.242-74.183 18.242 74.183h185.851l-69.093-140.49v-50.436c18.422-19.493 32.967-41.931 43.265-66.793zm-283.265 105.719v-30h210v30zm210-330h45c41.907 0 76 33.645 76 75v15h-46c-41.355 0-75-33.645-75-75zm-180 13.028 75 50 75-50v1.972c0 10.777 1.634 21.179 4.664 30.973l-79.664 53.113-79.664-53.113c3.03-9.794 4.664-20.196 4.664-30.973zm-151 61.972c0-41.355 34.093-75 76-75h45v15c0 41.355-33.645 75-75 75h-46zm61 43.924c30.065-4.32 56.057-21.419 72.271-45.605l92.729 61.823 92.729-61.823c16.215 24.185 42.206 41.285 72.271 45.605v21.224c0 48.669-18.187 94.539-51.349 129.853h-227.302c-33.162-35.315-51.349-81.185-51.349-129.854zm9.093 333.076 45.246-92h91.526l-22.623 92zm197.665 0-22.623-92h91.526l45.246 92z"/><path d="m241 240h30v30h-30z" transform="matrix(.707 -.707 .707 .707 -105.332 255.703)"/><path d="m241 180h30v30h-30z" transform="matrix(.707 -.707 .707 .707 -62.906 238.13)"/></g></svg>